<svg xmlns="http://www.w3.org/2000/svg" xmlns:xlink="http://www.w3.org/1999/xlink" version="1.1" id="Your_Icon" x="0px" y="0px" width="100px" height="100px" viewBox="0 0 100 100" enable-background="new 0 0 100 100" xml:space="preserve">
<path d="M95.63,50.03c-0.09-0.12-0.18-0.25-0.27-0.36h0.94c-6.21-8.77-18.82-10.79-27.43-4.3c-1.88-1.46-3.92-1.81-3.92-1.81  c0.21-0.57,0.5-1.13,0.65-1.71c0.13-0.49,0.14-1.15,0.39-1.59l0.06-0.13c0.44-1.22,0.87-2.44,1.29-3.67c0.2-0.57,0.33-1.4,0.7-1.89  c0.25-0.33,0.64-0.4,1-0.56c0.39-0.17,0.73-0.47,1.04-0.76c1.11,0.18,2.54,0.3,3.46-0.49c0.74-0.64,0.86-1.7,0.86-2.63  c1.31-0.22,2.54-0.5,2.07-2.08c-0.68-2.29-3.66-1.23-5.18-0.61c-2.25,0.92-4.85-0.01-7.2,0.11c-1.41,0.07-3.19,0.54-3.15,2.28  c1.16,0.24,2.33,0.48,3.49,0.73c0.4,0.08,0.98,0.1,1.31,0.37c0.65,0.55,1.04,1.46,2.01,1.46c-0.8,0.59-1.29,1.1-1.73,2.01  c-0.24,0.79-1.69,4.87-1.76,5.08c-0.61,1.24-1.2,2.48-1.66,3.79l-5.12,13.47c-0.18,0.46-0.54,1.31-1.13,1.31  c-0.87,0-1.73,0.1-2.6,0.05c-1.63-0.09-3.26-0.46-4.74-1.17c-3.54-1.71-5.21-5.36-7.15-8.57c-2.97-4.92-5.94-9.84-8.9-14.77  l0.33-0.84l0.41-0.16l1.11-2.72l-2.51-1.58c0,0,1.01-4.51,1.99-5.98h5.13c0.6,0,1.1-0.49,1.1-1.1v-0.52c0-0.6-0.49-1.1-1.1-1.1  h-5.85c-0.89,0-1.93,0.15-2.7,0.61c-1.04,0.63-1.1,2.37-1.12,3.46l-0.16,3.92c-0.68,0.2-1.1,1.82-1.38,2.41  c-0.39,0.8-0.78,2.1-1.72,2.4h-3.64c-2.8,0-2.37-2.81-2.37-2.81l0.73-8.46l-0.26-0.47h-0.82l-0.33,0.33c0,0-0.16,0.61,0.16,1.1  l-0.65,7.54v0.65c-0.02,0.81,0.23,1.7,0.8,2.3c1.09,1.15,3,0.8,4.42,0.8c2.66-0.08,1.51,3.12,0.65,4.49l-0.42,0.71  c-1.28,0.12-4.3,0.46-5.45,0.97l0.49,2.16h1.79l0.01-0.08l0.15-1.23h2.28c0.44,0.05,0.93,0.16,1.3,0.41l-0.64,1.42l-0.25,0.72  c-9.31-2.58-19.32,2.63-22.53,11.74c-3.07,8.71,0.93,18.62,9.16,22.79c8.31,4.2,18.73,1.42,23.88-6.32  c5.39-8.1,3.43-19.33-4.34-25.17c-1.19-0.89-2.49-1.65-3.86-2.23l0.68-1.92c0.55-0.7,1.68-0.46,2.47-0.46l1.02-2.51l6.44,10.99  c1.11,2.13,2.38,4.21,3.78,6.16c1.01,1.41,2.12,2.81,3.49,3.89c1.69,1.33,3.72,2.2,5.78,2.79c-0.3,1.4-0.04,2.9,0.75,4.1l-0.3,0.44  l-0.48,0.71c-0.83-0.23-2.07,1.49-2.28,2.16c-0.26,0.85,0.5,2.29,1.52,1.68c0.67,0.01,1.07-0.42,1.39-0.97l1.39-2.07l0.27-0.41  c3.89,2.6,9.12-0.9,8.27-5.47c0.33-0.03,0.67-0.06,1-0.09c1.01,10,10.19,17.51,20.18,16.62c9.14-0.82,16.49-8.51,16.9-17.68  C99.26,57.54,98.04,53.4,95.63,50.03C95.54,49.91,97.8,53.07,95.63,50.03z M35.34,60.84c0,0.03,0,0.05,0,0.08  c0.08,9.37-8.6,16.78-17.8,15.65C8.24,75.43,1.85,66.11,4.1,57.02c2.1-8.48,11.01-13.73,19.46-11.5l-5.23,14.92l0.05,0.02  c-0.5,1.42,1.71,2.2,2.21,0.77l0.05,0.02l5.22-14.92C31.44,48.78,35.34,54.35,35.34,60.84z M72.95,57.33  c0.49-0.65,1.02-1.23,1.66-1.75c0.78,0.93,1.56,1.86,2.29,2.74h-3.91v-0.98H72.95z M64.17,45.63c0,0,1.58,0.48,2.71,1.46  c-1.74,1.73-3.14,3.79-4.13,6.08H61.3L64.17,45.63z M57.42,64.33c-0.41,1.47-2.43,1.72-3.24,0.46v0c-0.69-1.08-0.01-2.55,1.25-2.74  C56.71,61.86,57.77,63.09,57.42,64.33C57.43,64.33,57.42,64.33,57.42,64.33C57.41,64.36,57.42,64.33,57.42,64.33z M80.49,76.69  c-7.97,0-14.91-6.18-15.76-14.12c0.32-0.02,4.06-0.27,5.72-0.38v0.44c-0.2,1.04,2.46,1.46,3.1,1.67c1.82,0.61,3.65,1.19,5.48,1.79  c0.54,0.26,1.17,0.42,1.76,0.33c1.27-0.19,1.7-1.72,2.1-2.75c0.39-1,0.77-2.23,0.5-3.31c-0.37-1.46-1.98-2.18-3.38-2.06  c-1-1.2-2.18-2.62-3.39-4.06c2.48-1.27,5.21-1,7.91-1c1.59,0,3.17,0,4.76,0c1.73,0.03,2.54-0.96,3.79-2.02  c3.97,4.92,4.23,12.23,1.08,17.61C91.36,73.66,86.08,76.69,80.49,76.69z"/>
</svg>